<?xml version="1.0" encoding="UTF-8"?>
<svg width="11in" height="8.5in" fill="none" stroke-linecap="square" stroke-miterlimit="10" version="1.1" viewBox="0 0 1056 816" xmlns="http://www.w3.org/2000/svg">
 <clipPath id="p1.0">
  <path d="m0 0h1280v720h-1280z"/>
 </clipPath>
 <g transform="matrix(1.1434 0 0 1.1318 -203 -.87689)" clip-path="url(#p1.0)" fill-rule="evenodd">
  <path d="m0 0h1280v720h-1280z" fill="transparent"/>
  <path d="m182.07 360 180-360h555.94l180 360-180 360h-555.94z" fill="#3280ed"/>
  <path d="m182.07 360 180-360h555.94l180 360-180 360h-555.94z" stroke="#000" stroke-linecap="butt" stroke-miterlimit="800" stroke-width="4"/>
  <path d="m362.07 1.6798e-4 555.94 720" fill="#000" fill-opacity="0"/>
  <path d="m362.07 1.6798e-4 555.94 720" stroke="#000" stroke-linecap="butt" stroke-miterlimit="800" stroke-width="4"/>
  <path d="M 362.07,720 918.01,0" fill="#000" fill-opacity="0"/>
  <path d="M 362.07,720 918.01,0" stroke="#000" stroke-linecap="butt" stroke-miterlimit="800" stroke-width="4"/>
  <path d="m482.86 156.37-102.24 198.47 112.55 197.61 146.92-192.46z" fill="#e8028c"/>
  <path d="m482.86 156.37-102.24 198.47 112.55 197.61 146.92-192.46z" stroke="#000" stroke-linecap="butt" stroke-linejoin="round" stroke-width="4"/>
  <path d="m797.33 156.37 102.24 198.47-112.55 197.61-146.92-192.46z" fill="#e8028c"/>
  <path d="m797.33 156.37 102.24 198.47-112.55 197.61-146.92-192.46z" stroke="#000" stroke-linecap="butt" stroke-linejoin="round" stroke-width="4"/>
  <path d="m779.37 179.5-139.34 178.55-139.34-178.55z" fill="#e89002"/>
  <path d="m779.37 179.5-139.34 178.55-139.34-178.55z" stroke="#000" stroke-linecap="butt" stroke-linejoin="round" stroke-width="4"/>
  <path d="m779.37 540.93-139.34-178.55-139.34 178.55z" fill="#e89002"/>
  <path d="m779.37 540.93-139.34-178.55-139.34 178.55z" stroke="#000" stroke-linecap="butt" stroke-linejoin="round" stroke-width="4"/>
  <path d="m455.08 354.41c0-34.372 24.748-62.236 55.276-62.236 14.66 0 28.72 6.557 39.086 18.229s16.19 27.502 16.19 44.008c0 34.372-24.748 62.236-55.276 62.236s-55.276-27.864-55.276-62.236z" fill="#e7e6e6"/>
  <path d="m455.08 354.41c0-34.372 24.748-62.236 55.276-62.236 14.66 0 28.72 6.557 39.086 18.229s16.19 27.502 16.19 44.008c0 34.372-24.748 62.236-55.276 62.236s-55.276-27.864-55.276-62.236z" stroke="#44546a" stroke-linecap="butt" stroke-linejoin="round" stroke-width="2"/>
  <path d="m714.56 354.41c0-34.372 24.748-62.236 55.276-62.236 14.66 0 28.72 6.557 39.086 18.229s16.19 27.502 16.19 44.008c0 34.372-24.748 62.236-55.276 62.236s-55.276-27.864-55.276-62.236z" fill="#e7e6e6"/>
  <path d="m714.56 354.41c0-34.372 24.748-62.236 55.276-62.236 14.66 0 28.72 6.557 39.086 18.229s16.19 27.502 16.19 44.008c0 34.372-24.748 62.236-55.276 62.236s-55.276-27.864-55.276-62.236z" stroke="#44546a" stroke-linecap="butt" stroke-linejoin="round" stroke-width="2"/>
  <path d="m479 354.41c0-17.447 14.038-31.591 31.354-31.591 8.3157 0 16.291 3.3283 22.171 9.2527s9.1835 13.96 9.1835 22.338c0 17.447-14.038 31.591-31.354 31.591-17.317 0-31.354-14.144-31.354-31.591z" fill="#000"/>
  <path d="m479 354.41c0-17.447 14.038-31.591 31.354-31.591 8.3157 0 16.291 3.3283 22.171 9.2527s9.1835 13.96 9.1835 22.338c0 17.447-14.038 31.591-31.354 31.591-17.317 0-31.354-14.144-31.354-31.591z" stroke="#44546a" stroke-linecap="butt" stroke-linejoin="round"/>
  <path d="m738.48 354.42c0-17.447 14.038-31.591 31.354-31.591 8.3157 0 16.291 3.3283 22.171 9.2527s9.1835 13.96 9.1835 22.338c0 17.447-14.038 31.591-31.354 31.591-17.317 0-31.354-14.144-31.354-31.591z" fill="#000"/>
  <path d="m738.48 354.42c0-17.447 14.038-31.591 31.354-31.591 8.3157 0 16.291 3.3283 22.171 9.2527s9.1835 13.96 9.1835 22.338c0 17.447-14.038 31.591-31.354 31.591-17.317 0-31.354-14.144-31.354-31.591z" stroke="#44546a" stroke-linecap="butt" stroke-linejoin="round"/>
 </g>
</svg>
